<?xml version="1.0" encoding="utf-8"?>
<!-- Generator: Adobe Illustrator 16.0.0, SVG Export Plug-In . SVG Version: 6.00 Build 0)  -->
<!DOCTYPE svg PUBLIC "-//W3C//DTD SVG 1.1//EN" "http://www.w3.org/Graphics/SVG/1.1/DTD/svg11.dtd">
<svg version="1.1" id="Layer_1" xmlns="http://www.w3.org/2000/svg" xmlns:xlink="http://www.w3.org/1999/xlink" x="0px" y="0px"
	 width="1000px" height="1000px" viewBox="0 0 1000 1000" enable-background="new 0 0 1000 1000" xml:space="preserve">
<g>
	<path fill-rule="evenodd" clip-rule="evenodd" d="M554.112,329.939c6.649-1.585,7.812-6.107,2.612-11.351
		c-1.815-1.831-4.314-3.347-6.77-4.008c-1.047-0.282-2.781,1.994-4.852,3.615c-1.186-0.704-3.253-1.931-5.695-3.381
		c1.912-2.69-0.934-5.976,2.727-9.082c4.466-3.79,5.891,1.673,9.625,1.623c-1.297-2.428-2.365-4.427-3.479-6.513
		c2.02-0.611,3.582-1.085,5.144-1.558c-0.741-1.502-1.481-3.003-2.339-4.741c1.686-3.389,0.454-8.389-4.992-18.366
		c3.619,1.108,7.846-2.546,9.957,3.789c0.56,1.68,6.324,2.191,9.713,2.237c6.338,0.086,6.219-0.243,5.698-6.521
		c-0.185-2.227,0.819-4.529,0.847-6.802c0.022-1.811-0.396-5.094-0.996-5.184c-2.289-0.341-4.871-0.038-7.073,0.767
		c-1.958,0.716-3.421,2.726-5.358,3.583c-1.627,0.72-3.624,0.603-5.457,0.855c-0.279-0.489-0.559-0.979-0.838-1.467
		c2.384-2.585,4.769-5.169,7.748-8.397c-2.069-0.312-4.135-0.508-6.146-0.954c-2.423-0.538-5.271-0.668-7.104-2.064
		c-5.154-3.928-7.713-4.428-12.928-1.419c-0.747-2.981-1.588-6.041-2.234-9.142c-0.144-0.688,0.414-2.183,0.623-2.179
		c1.211,0.026,2.953-0.029,3.531,0.711c3.502,4.488,8.477,3.946,13.234,4.356c3.318,0.286,5.398-1.693,4.338-4.326
		c-1.51-3.752-3.752-7.814-6.876-10.136c-2.96-2.199-2.864-3.437-0.609-5.117c4.218-3.145,6.257-5.996,0.875-10.006
		c-1.05-0.783-1.07-2.948-1.687-4.852c3.633-0.541,6.175,0.227,7.223,3.342c1.572,4.676,4.131,2.646,6.438,1.057
		c1.738-1.198,3.098-2.93,4.732-4.297c4.851-4.058,10.361-4.295,16.24-2.849c2.008,0.493,4.158,0.404,5.322,0.503
		c1.43-5.987,1.772-11.496,5.345-16.223c4.429-5.858,10.155-3.69,15.3-2.202c6.651,1.925,7.517,3.84,7.597,10.818
		c0.021,1.824,0.06,3.693,0.452,5.462c2.701,12.207-5.496,18.91-13.138,25.752c-1.278,1.145-3.687,1.272-5.604,1.399
		c-3.274,0.216-6.575,0.06-8.616,0.06c-1.715,2.519-2.641,3.946-3.637,5.322c-1.137,1.569,2.181,15.955,4.01,16.328
		c1.518,0.31,3.216-0.393,4.838-0.418c1.185-0.018,2.375,0.335,3.563,0.522c-0.621,1.212-0.934,2.899-1.926,3.544
		c-2.66,1.73-5.612,3.015-9.254,4.891c2.602,1.312,4.287,2.16,5.973,3.009c-0.107,0.411-0.215,0.822-0.32,1.232
		c-1.939,0-3.879,0-6.523,0c1.023,4.57,2.82,8.933,2.732,13.257c-0.084,4.146-0.992,9.331-3.612,12.085
		c-2.823,2.967-3.55,5.123-2.509,8.603c0.793,2.649,1.422,5.348,2.285,8.641c-5.9-1.319-7.543,1.055-7.614,6.356
		c-0.055,4.09,0.798,5.84,4.972,6.051c3.461,0.176,5.705,1.841,4.646,5.904c-0.246,0.948-0.238,1.989-0.196,2.98
		c0.15,3.5,0.366,6.996,0.579,10.896c3.217-3.177,6.789-6.661,10.312-10.197c3.049-3.062,6.062-6.16,9.04-9.29
		c0.779-0.818,1.977-1.822,1.961-2.723c-0.141-7.962,5.04-12.453,10.399-17.049c1.13-0.969,1.474-3.239,1.585-4.948
		c0.506-7.799,0.781-15.612,1.191-23.418c0.057-1.091,0.4-2.166,0.739-3.902c4.369,2.264,8.517,3.962,12.171,6.397
		c8.223,5.48,16.156,11.393,24.326,16.955c1.227,0.835,3.138,1.151,4.658,0.993c19.536-2.03,38.88,0.774,58.299,1.998
		c16.363,1.031,31.727,5.901,46.866,11.491c4.181,1.544,7.438,5.537,11.184,8.318c15.68,11.641,23.374,28.171,28.384,46.328
		c4.601,16.672,5.788,33.691,5.027,50.903c-0.064,1.462,0.166,2.957,0.416,4.41c1.823,10.609,3.852,21.186,5.501,31.821
		c2.881,18.575,1.306,37.151-1.037,55.609c-0.975,7.684-3.938,15.094-5.498,22.729c-0.947,4.638-1.644,9.532-1.235,14.204
		c1.55,17.739,3.994,35.401,1.271,53.262c-2.378,15.595-3.748,31.37-6.765,46.832c-2.979,15.266-11.627,28.148-20.318,40.799
		c-0.429,0.624-1.241,0.984-2.833,0.876c1.024-2.08,1.897-4.252,3.103-6.222c2.604-4.253,6.084-8.123,7.875-12.674
		c1.686-4.28,2.459-9.284,2.171-13.878c-0.294-4.688-0.354-8.903,2.426-12.844c3.369-4.775,3.727-9.767,1.305-15.13
		c-0.598-1.323-0.908-3.728-0.158-4.559c6.008-6.66,1.939-13.062,0.521-18.654c1.508-2.629,3.253-4.645,3.882-6.963
		c1.817-6.709,3.808-13.478,4.493-20.347c0.396-3.958-1.56-8.165-2.537-12.24c-0.711-2.966-2.076-5.874-2.224-8.854
		c-0.269-5.403-0.217-10.366-6.043-13.532c-4.502-2.447-4.363-5.221-1.482-9.31c0.839-1.19,1.024-3.729,0.313-4.959
		c-2.295-3.972-1.238-6.669,1.889-9.584c3.712-3.46,3.192-4.958-0.864-8.077c-1.144-0.879-1.771-3.243-1.614-4.824
		c0.307-3.095,1.314-6.122,2.066-9.169c0.807-3.271-0.021-5.656-2.967-7.699c-3.943-2.736-6.37-12.97-3.532-16.283
		c7.254-8.471,8.678-19.116,10.688-29.208c2.241-11.249,2.584-22.906,3.305-34.414c0.337-5.369-0.382-10.806-0.621-16.212
		c-0.036-0.829-0.251-1.699-0.076-2.481c3.758-16.799-4.828-29.771-13.262-42.768c-1.986-3.062-3.609-6.962-6.477-8.726
		c-6.268-3.854-11.232-10.572-19.893-9.967c-1.31,0.092-3.014-1.625-4.094-2.884c-2.411-2.809-4-7.48-6.907-8.455
		c-5.331-1.785-11.729-2.951-17.047-1.69c-12.148,2.881-23.98,7.188-35.798,11.325c-4.311,1.509-8.133,4.363-12.352,6.207
		c-1.328,0.581-3.509,0.389-4.81-0.333c-9.183-5.091-18.27-7.313-28.104-1.411c-6.284,3.771-13.367,3.612-20.314,2.124
		c-1.32-0.282-2.533-1.99-3.396-3.304c-2.819-4.295-8.015-5.279-11.705-1.741c-3.521,3.375-7.118,6.806-9.938,10.744
		c-2.861,3.997-4.602,8.78-7.25,12.954c-1.467,2.312-3.598,4.32-5.763,6.047c-5.651,4.504-12.03,8.246-17.024,13.36
		c-2.6,2.663-4.402,7.777-3.933,11.447c1.396,10.927,4.341,21.645,6.22,32.523c2.059,11.924,4.061,23.893,5.193,35.927
		c0.631,6.705-0.342,13.604-0.998,20.375c-0.467,4.806,0.205,9.68-2.588,14.365c-2.094,3.513,0.955,7.629,4.572,6.181
		c6.789-2.719,11.793,1.687,17.617,2.521c0.305,0.044,0.639-0.11,1.288-0.235c0.455-3.958,1.401-7.807,6.534-8.304
		c0.518-0.05,1.318-0.794,1.387-1.297c0.884-6.488,4.835-5.668,9.502-4.493c1.806,0.455,4.031-0.758,5.204-1.02
		c1.847,1.499,3.447,2.798,5.048,4.097c1.283-1.67,2.787-3.22,3.773-5.05c0.678-1.259,0.787-2.895,0.885-4.379
		c0.143-2.164-0.033-4.09-3.229-3.526c-0.853,0.149-1.924-0.949-2.896-1.475c0.824-0.581,1.646-1.654,2.473-1.659
		c3.676-0.022,5.23-1.875,6.109-5.294c0.475-1.849,2.271-3.358,3.472-5.021c0.409,0.228,0.819,0.455,1.229,0.683
		c0,2.538-0.378,5.155,0.13,7.587c0.354,1.693,2.139,4.549,2.916,4.432c3.004-0.451,6.403-1.275,6.361-5.573
		c-0.068-7.158,2.354-14.528-2.07-21.327c-0.554-0.852,0.047-2.454,0.171-4.851c2.398,4.785,4.985,8.336,5.928,12.28
		c0.933,3.902,0.204,8.202,0.204,12.855c1.172-1.302,2.736-2.48,3.557-4.048c3.153-6.02,6.308-7.959,13.334-6.72
		c2.81,0.496,4.503,0.141,5.666-2.405c0.138-0.301,0.272-0.685,0.525-0.839c5.408-3.3,8.499-7.302,6.861-14.368
		c-1.295-5.585-1.211-11.16-4.636-16.511c-1.757-2.745,0.449-8.105,1.051-12.257c0.569-3.925,1.557-7.794,2.035-11.727
		c0.412-3.39,0.046-6.635-3.287-8.839c-0.818-0.541-1.025-1.996-1.532-3.022c-1.193-2.417-2.669-4.737-3.527-7.268
		c-0.978-2.879-1.957-5.979-1.775-8.91c0.063-1.015,3.602-1.813,5.353-2.618c0.773,0.998,1.108,1.235,1.149,1.517
		c0.225,1.517,0.338,3.052,0.632,4.554c0.021,0.109,1.697,0.053,1.704-0.016c0.156-1.578,0.396-3.196,0.188-4.75
		c-0.241-1.799-0.794-3.577-1.39-5.303c-2.23-6.467-2.258-6.458,4.94-10.243c-0.247,2.387-0.44,4.259-0.635,6.132
		c0.487,0.177,0.974,0.354,1.461,0.531c1.089-2.858,2.178-5.717,3.371-8.85c4.164,1.799,6.041,3.749,5.968,8.673
		c-0.076,5.117,2.609,10.218,3.532,15.424c0.952,5.373,1.367,10.855,1.771,16.309c0.36,4.854,0.157,9.759,0.687,14.588
		c0.173,1.577,2.027,2.906,2.821,4.495c0.913,1.827,2.699,4.657,2.038,5.599c-4.251,6.051-1.52,12.516-0.834,18.383
		c0.801,6.854-2.018,11.835-4.584,17.371c-1.979,4.274-3.517,8.76-5.117,13.199c-0.56,1.551-0.289,3.524-1.135,4.827
		c-5.773,8.898,2.04,15.057,4.328,22.31c0.042,0.135,0.572,0.116,0.912,0.176c-0.533-3.406-1.176-6.773-1.537-10.17
		c-0.151-1.428-0.181-3.26,0.572-4.306c1.305-1.813,3.26-3.156,4.943-4.697c0.148,1.941,0.328,3.88,0.437,5.823
		c0.083,1.477-0.306,3.099,0.179,4.41c1.727,4.679,1.865,8.963-1.267,13.244c-1.543,2.108,1.304,10.753,3.87,13.004
		c2.418-1.652,4.756-3.504,7.341-4.899c1.114-0.601,3.216-0.831,4-0.182c0.801,0.664,1.15,2.955,0.608,3.926
		c-1.058,1.895-2.612,3.789-4.435,4.919c-3.354,2.08-4.529,3.536-3.137,8.229c1.648,5.553,4.411,9.854,8.031,13.883
		c0.994,1.106,2.922,1.374,4.422,2.026c0.608-1.828,1.312-3.634,1.779-5.498c0.182-0.722-0.17-1.578-0.446-3.608
		c6.187,4.007,9.508-0.491,13.438-3.189c3.215-2.208,6.274-2.245,8.819,0.961c2.372,2.989,2.76,5.953-0.557,8.724
		c-2.497,2.087-4.122,4.36-3.514,8.164c0.535,3.343-4.819,7.93-8.224,7.862c-5.353-0.104-12.013,5.714-12.74,11.133
		c-0.605,4.499-3.79,7.051-8.509,6.816c-4.48-0.224-12.554,9.032-12.908,14.299c-0.381,5.661,1.105,10.621,3.432,15.76
		c1.284,2.837,0.229,6.732,0.229,9.682c3.365-1.17,7.983-2.778,12.603-4.386c0.28,0.597,0.56,1.193,0.84,1.79
		c-1.006,0.604-1.979,1.664-3.021,1.736c-6.459,0.45-9.729,5.212-13.088,9.67c-0.787,1.044-0.673,3.243-0.145,4.584
		c0.236,0.597,2.53,0.357,3.884,0.545c1.032,0.144,2.053,0.361,3.078,0.546c-0.557,1.094-0.857,2.49-1.722,3.22
		c-1.889,1.595-4.006,2.946-6.135,4.223c-3.232,1.938-3.288,4.291-1.143,7.019c1.945,2.474,3.876,4.966,5.948,7.332
		c1.659,1.894,2.23,3.412,0.092,5.517c-5.649,5.559-5.567,5.635,0.701,10.563c0.765,0.602,1.468,1.282,2.728,2.391
		c-2.094,2.254-4.167,4.249-5.933,6.487c-0.854,1.082-1.452,2.583-1.606,3.957c-0.552,4.894-3.09,8.377-6.601,11.726
		c-3.543,3.379-6.285,7.594-9.397,11.427c-3.794,4.671-6.054,10.419-11.73,13.851c-2.116,1.278-3.501,6.341-2.817,9.077
		c1.04,4.159-0.834,5.018-3.646,6.036c-0.621,0.225-1.415,0.123-1.927,0.471c-1.698,1.15-3.306,2.437-4.947,3.671
		c2.006,2.338,3.597,5.721,7.542,4.242c3.571-1.338,6.88-3.391,10.472-4.651c1.94-0.681,4.232-0.361,6.366-0.493
		c-0.605,2.088-0.787,4.446-1.909,6.206c-2.033,3.188-4.626,6.021-7.635,9.824c2.798,0.934,5.248,1.752,7.833,2.614
		c-0.168,0.824-0.463,2.27-0.812,3.976c-3.449,0-7.064,0.08-10.674-0.025c-2.872-0.085-4.292,1.183-3.408,3.923
		c1.404,4.354,1.453,9.928,8.271,10.091c0.855,0.021,1.666,1.896,2.498,2.913c-1.9,1.384-3.663,3.493-5.751,3.891
		c-1.319,0.251-3.752-1.716-4.595-3.277c-2.606-4.826-4.699-9.932-6.972-14.938c-0.88-1.937-1.708-3.896-2.673-6.105
		c-2.065,0.766-3.727,1.815-5.43,1.888c-1.625,0.069-3.937-0.413-4.745-1.526c-0.692-0.952-0.274-3.735,0.675-4.68
		c4.425-4.398,2.994-9.371,1.128-13.802c-2.893-6.87-3.872-12.995,0.631-19.746c2.861-4.291,3.572-10.029,6.487-14.267
		c2.61-3.794,6.679-6.755,10.523-9.495c8.116-5.782,14.557-13.022,19.491-21.556c0.874-1.512,0.821-5.092-0.237-5.95
		c-9.205-7.471-9.676-18.064-11.009-28.469c-1.697-13.24-0.669-26.44,3.759-38.788c2.78-7.755,8.822-14.318,13.228-21.522
		c1.865-3.05,3.127-6.467,4.969-9.532c1.056-1.758,2.486-3.513,4.173-4.62c3.028-1.988,3.147-3.869,0.891-6.471
		c-7.924-9.136-15.521-18.575-23.828-27.344c-2.452-2.589-7.186-5.117-10.257-4.518c-4.363,0.853-9.001,3.084-10.07,9.406
		c-2.216,13.107-5.533,26.025-8.075,39.084c-0.287,1.476,1.439,3.384,2.335,5.036c0.749,1.38,2.655,3.486,2.329,3.894
		c-5.412,6.755-1.123,13.877-0.822,20.727c0.225,5.098,2.711,10.173,2.517,15.192c-0.238,6.169-1.497,12.534-3.63,18.331
		c-2.568,6.981-6.115,13.707-10.064,20.027c-1.627,2.604-5.329,3.991-8.23,5.687c-1.917,1.119-4.09,1.8-6.317,3.302
		c6.345-1.223,7.13,2.821,7.981,7.1c0.55,2.757,1.398,5.509,2.521,8.085c2.172,4.982,1.166,9.379-0.695,14.363
		c-3.774,10.116-6.314,20.685-9.816,30.911c-3.74,10.922-8.096,21.633-11.938,32.521c-0.585,1.658-0.546,4.243,0.374,5.614
		c7.166,10.681,4.592,20.306-1.238,30.813c-8.801,15.858-17.699,31.539-29.546,45.358c-1.14,1.33-2.585,2.398-3.888,3.589
		c-0.483-0.303-0.967-0.606-1.449-0.909c1.008-1.775,1.848-3.675,3.054-5.304c4.923-6.647,10.97-12.69,10.542-21.966
		c-0.047-1.021,1.395-2.087,2.086-3.169c4.521-7.086,9.205-14.077,13.453-21.323c1.767-3.012-0.76-4.815-3.143-6.338
		c-3.084-1.971-7.292-2.44-8.426-7.128c-0.225-0.928-3.695-1.07-5.852-1.621c2.854-3.84,5.818-7.545,8.469-11.462
		c3.438-5.085,7.15-10.097,9.708-15.619c1.337-2.889,0.269-6.825,0.651-10.247c0.24-2.148,0.528-4.831,1.879-6.225
		c7.277-7.517,11.239-16.627,13.934-26.502c1.223-4.482-1.224-6.435-4.799-7.917c-7.301-3.028-7.488-3.17-3.453-10.06
		c3.186-5.437-0.049-7.438-5.079-8.884c1.938-1.594,3.142-2.583,4.346-3.571c-0.03-0.529-0.06-1.058-0.089-1.587
		c-2.14,0-4.38-0.4-6.393,0.104c-2.379,0.596-5.205,1.414-6.698,3.128c-3.251,3.731-9.261,0.635-11.956,5.294
		c-0.099,0.169-2.795-0.575-3.564-1.494c-2.381-2.838-2.234-8.249-0.055-10.122c3.523-3.029,8.345-3.302,11.599-0.683
		c0.235,0.189,0.616,0.199,1.608,0.496c2.299-2.793,4.768-5.791,7.693-9.344c0.254,0.042,1.438,0.588,2.406,0.329
		c2.715-0.726,6.571-1.063,7.658-2.913c1.102-1.877,0.207-5.865-1.176-8.077c-3.738-5.98-3.512-6.944,3.553-8.234
		c2.42-0.441,4.775-1.235,7.16-1.869c-0.115-0.621-0.23-1.242-0.345-1.862c-3.264,0.225-6.527,0.45-9.791,0.675
		c-0.202-0.45-0.403-0.899-0.606-1.35c3.971-2.088,7.932-4.193,11.914-6.254c1.914-0.99,3.905-1.835,5.804-2.854
		c4.733-2.538,7.063-6.345,7.672-11.882c1.476-13.42,3.282-26.788,1.044-40.279c-0.294-1.773-0.779-3.588-1.566-5.193
		c-2.144-4.374-3.188-8.754-1.146-13.458c0.261-0.602,0.635-1.402,0.441-1.916c-2.244-5.945,1.695-9.994,4.241-14.527
		c1.948-3.471,0.78-4.903-3.315-5.447c-2.161-0.286-4.123-2.038-6.287-2.35c-2.402-0.346-5.586-0.711-7.284,0.517
		c-5.567,4.023-10.948,3.783-16.976,1.458c-2.716-1.048-5.879-1.092-8.857-1.259c-2.894-0.162-4.637,0.484-6.19,4.011
		c-1.695,3.85-3.052,8.928-8.911,10.271c-4.168,0.956-5.678,5.749-3.721,9.243c0.664,1.185,2.428,2.42,3.723,2.457
		c3.771,0.109,7.559-0.417,11.344-0.616c4.984-0.262,8.055-3.229,10.959-6.938c1.078-1.376,4.556-2.804,5.227-2.225
		c2.441,2.11,0.935,4.481-1.064,6.321c-4.24,3.903-8.267,8.107-12.884,11.505c-2.674,1.967-6.25,2.887-9.556,3.772
		c-4.328,1.159-8.855,1.593-13.16,2.819c-1.455,0.414-2.494,2.29-3.725,3.498c1.178,0.925,2.331,1.882,3.539,2.763
		c0.659,0.479,1.678,0.656,2.08,1.268c4.639,7.033,11.174,5.12,16.904,2.787c9.373-3.815,15.91-11.407,21.591-19.498
		c1.181-1.681,0.286-4.771,0.482-7.2c0.243-3.014,0.628-6.016,0.966-9.151c6.21,1.76,9.137,8.774,6.425,13.369
		c-2.681,4.542-5.394,9.076-7.768,13.778c-0.827,1.638-1.635,4.493-0.827,5.547c4.232,5.519-0.281,10.933-0.002,16.346
		c0.057,1.074-4.986,3.775-7.15,3.304c-3.981-0.865-6.346,0.25-8.707,2.979c-3.791,4.383-7.475,8.892-11.598,12.945
		c-2.426,2.384-5.518,4.152-8.484,5.903c-3.278,1.937-6.817,3.429-10.127,5.316c-3.13,1.785-4.612,4.507-2.771,7.95
		c1.22,2.281,7.188,2.849,9.632,0.958c2.097-1.622,3.765-3.801,5.866-5.416c2.193-1.686,4.678-2.992,7.036-4.464
		c0.382,0.45,0.765,0.9,1.147,1.351c-0.824,1.077-1.496,2.326-2.495,3.202c-5.504,4.824-10.961,9.717-16.697,14.254
		c-2.97,2.349-6.579,3.87-9.692,6.061c-1.018,0.715-1.381,2.359-2.045,3.579c1.13,0.53,2.324,1.615,3.376,1.49
		c3.742-0.444,7.968-0.385,11.047-2.175c8.933-5.193,17.396-11.201,21.367-21.469c0.477-1.233,1.104-2.555,1.065-3.817
		c-0.306-10.319,9.255-16.172,10.004-25.974c0.674,0.207,1.349,0.415,2.023,0.622c-0.324,2.215-0.649,4.429-0.833,5.683
		c3.239,1.503,6.032,2.42,8.325,4.043c0.966,0.683,0.986,2.839,1.228,4.357c0.146,0.922-0.546,2.233-0.113,2.813
		c3.514,4.711-0.169,8.012-2.132,11.615c-1.179,2.165-2.565,4.217-4.154,6.799c-3.105-1.268-5.301-0.191-7.115,3.812
		c-0.934,2.061-4.601,2.866-7.008,4.28c-2.854,1.677-6.586,2.748-8.355,5.216c-6.445,8.987-12.252,18.433-18.22,27.757
		c-0.479,0.749-0.14,1.99-0.548,2.824c-0.832,1.698-1.522,3.975-2.961,4.78c-6.04,3.381-7.518,6.037-5.77,12.735
		c1.633,6.261,3.096,12.609,5.389,18.633c0.991,2.605,3.877,4.491,5.561,6.33c-1.057,4.539-3.63,9.923-3.127,15.003
		c0.527,5.325,3.637,10.56,6.31,15.457c2.29,4.197,5.684,7.78,8.277,11.835c0.489,0.765-0.474,3.561-0.792,3.565
		c-2.906,0.042-6.103,0.346-8.664-0.732c-3.988-1.678-6.917-0.706-5.917,3.504c1.495,6.291-1.419,9.129-5.937,12.012
		c-1.322,0.845-2.678,3.116-2.513,4.562c0.779,6.833-0.79,14.092,3.408,20.391c0.626,0.939,1.071,2.588,0.682,3.528
		c-4.39,10.59,0.272,19.866,5.375,28.218c2.069,3.385,8.347,4.988,12.991,5.815c6.16,1.098,12.597,0.622,18.912,0.878
		c0.603,0.024,1.189,0.438,1.85,1.629c-1.283,0.214-2.572,0.647-3.846,0.606c-11.309-0.368-22.625-0.644-33.91-1.389
		c-2.368-0.157-4.617-2.132-6.803-3.211c0.11-0.729,0.059-1.248,0.219-1.324c6.742-3.23,4.42-8.847,2.458-13.091
		c-4.297-9.297-3.909-19.134-4.69-28.838c-0.453-5.629-0.42-11.357,0.063-16.983c0.418-4.886,1.455-9.783,2.794-14.512
		c2.247-7.932,6.34-14.777,2.049-24.218c-3.6-7.92-2.368-17.929-3.983-26.885c-1.826-10.127-4.299-20.147-6.775-30.144
		c-1.224-4.942-4.879-6.888-9.892-6.298c-0.497,0.058-0.995,0.116-1.493,0.134c-8.078,0.283-14.254,3.522-16.506,11.715
		c-3.395,12.347-11.873,21.287-19.658,30.784c-9.588,11.697-18.907,23.615-28.384,35.404c-0.711,0.885-1.688,1.616-2.666,2.216
		c-2.929,1.796-4.042,4.406-3.374,7.669c4.278,20.894-3.059,40.148-8.568,59.609c-0.984,3.475-3.685,6.463-5.593,9.677
		c-0.428-0.158-0.857-0.315-1.285-0.473c0.262-1.049,0.533-2.095,0.785-3.145c1.413-5.909,2.806-11.822,4.245-17.725
		c0.303-1.241,0.759-2.447,1.166-3.662c1.993-5.957,4.5-11.809,5.752-17.918c0.532-2.595-0.908-6.216-2.621-8.488
		c-2.07-2.744-3.015-4.979-1.406-8.096c0.526-1.02,1.082-2.213,1.027-3.297c-0.071-1.395-0.348-3.265-1.273-3.986
		c-0.834-0.651-2.813-0.403-4.023,0.092c-5.034,2.06-6.29,2.017-10.961-1.666c2.3-1.603,4.392-3.075,6.498-4.527
		c5.327-3.671,11.02-6.925,15.844-11.167c2.518-2.213,3.466-6.186,5.211-9.314c0.833-1.493,1.539-3.529,2.867-4.197
		c8.841-4.447,15.576-11.203,21.837-18.654c2.75-3.273,2.922-6.285,0.308-9.39c-2.681-3.186-1.677-5.313,1.438-7.28
		c1.395-0.881,2.605-2.061,3.881-3.126c2.362-1.97,2.675-3.894,0.324-6.278c-1.273-1.291-1.958-3.162-2.666-4.36
		c2.869-0.701,6.538-0.653,7.056-1.906c1.456-3.522,1.616-7.582,2.272-11.432c0.023-0.137-0.099-0.417-0.192-0.437
		c-7.569-1.55-9.097-9.336-13.982-13.691c-3.479-3.102-6.753-6.885-8.807-11.017c-2.369-4.766-3.211-10.275-4.911-15.397
		c-0.387-1.167-1.452-2.206-2.417-3.067c-4.977-4.442-8.815-9.319-9.236-16.483c-0.247-4.202-3.631-5.492-7.868-3.729
		c-7.25,3.017-16.244-1.534-17.582-9.362c-0.699-4.093-2.001-5.232-5.854-3.541c-3.639,1.598-7.578,2.577-11.06,4.438
		c-1.366,0.73-2.961,3.587-2.51,4.655c1.119,2.65,1.353,7.176,6.529,5.553c1.779-0.558,3.771-0.433,5.812-0.635
		c-1.563,7.828-4.013,9.586-10.928,9.116c-4.542-0.309-9.211-0.414-12.822,4.229c2.325-0.168,4.701-0.085,6.964-0.55
		c7.315-1.504,7.297-1.581,7.578,6.104c0.036,0.999-0.159,2.116,0.222,2.969c0.644,1.439,1.806,3.943,2.501,3.862
		c6.539-0.761,10.683,5.111,16.686,5.738c1.383,0.145,2.618,1.709,3.922,2.62c-1.311,0.556-2.62,1.587-3.933,1.592
		c-11.438,0.044-22.875-0.118-34.313-0.153c-1.346-0.004-2.694,0.394-4.041,0.604c-0.01,0.569-0.02,1.138-0.03,1.707
		c2.292,0.215,4.589,0.654,6.874,0.594c3.981-0.104,5.325,1.466,4.734,5.473c-1.362,9.244-0.467,8.759,7.762,12.281
		c7.91,3.386,14.753,0.873,21.269-1.661c4.109-1.599,6.837-6.794,10.134-10.423c3.188-3.509,6.935-3.416,8.796,0.597
		c0.605,1.306,0.419,3.724-0.443,4.804c-1.693,2.12-4.115,3.658-6.36,5.543c1.362,11.519-1.419,16.791-8.47,16.319
		c-1.778,2.325-3.454,4.516-5.128,6.705c-0.416-0.271-0.832-0.544-1.247-0.816c0.351-0.762,0.668-1.543,1.059-2.283
		c1.646-3.117,1.63-5.533-2.639-5.968c-4.679-0.476-9.372-0.816-14.054-1.271c-0.794-0.076-1.667-0.26-2.325-0.677
		c-7.509-4.753-15.75-6.767-24.563-6.657c-6.629,0.082-10.436,5.475-8.187,11.863c0.927,2.634,2.192,5.246,3.799,7.518
		c1.846,2.609,1.452,4.157-1.289,5.501c-1.641,0.804-3.627,1.451-4.666,2.785c-1.045,1.344-2.033,3.865-1.455,5.158
		c4.598,10.275,8.853,20.875,19.072,27.287c0.756,0.476,1.5,2.108,1.25,2.879c-3.296,10.177,3.519,16.494,8.791,23.358
		c3.361,4.375,6.935,8.586,10.414,12.871c-0.34,0.652-0.68,1.305-1.021,1.957c-2.45,0-4.998,0.437-7.329-0.091
		c-4.893-1.107-9.344,2.27-8.443,7.188c1.724,9.41,4.531,18.412,11.063,25.843c1.087,1.236,2.233,3.374,1.904,4.748
		c-2.087,8.703,2.712,14.844,7.799,20.484c3.171,3.518,4.369,5.987,0.462,9.396c-3.027,2.641-1.988,4.435,1.331,5.723
		c7.903,3.068,15.788,1.662,23.548-0.392c1.115-0.295,1.597-2.979,2.622-5.066c1.479,1.233,3.529,2.943,6.364,5.307
		c-2.357,1.504-3.998,3.395-5.793,3.556c-9.573,0.86-19.182,1.542-28.786,1.672c-2.142,0.029-5.219-1.909-6.271-3.82
		c-1.644-2.986,1.333-4.634,3.699-5.986c2.26-1.292,2.683-2.979,0.732-4.798c-15.471-14.417-18.27-34.534-24.061-53.309
		c-1.618-5.245-3.313-10.467-4.872-15.73c-0.415-1.402-1.115-3.263-0.56-4.324c4.195-8.017-1.04-14.111-3.874-20.712
		c-6.177-14.384-11.544-29.19-18.795-43.009c-4.639-8.841-4.453-16.837-2.069-25.732c1.505-5.613,2.608-11.373,3.356-17.136
		c0.356-2.74,0.465-6.435-1.038-8.333c-6.427-8.121-6.376-17.684-6.783-27.067c-0.301-6.944,0.905-13.953,0.619-20.9
		c-0.179-4.339-1.528-8.737-2.966-12.897c-5.393-15.603-11.765-30.785-20.734-44.737c-2.469-3.841-2.159-7.492,0.339-11.4
		c6.996,4.307,11.073,10.4,13.146,18.448c0.882,3.426,4.204,6.192,6.255,9.362c0.901,1.394,2.168,3.201,1.898,4.546
		c-0.395,1.967-2.604,3.585,0.137,5.551c4.366,3.129,6.961,9.663,14.01,7.556c3.555-1.063,6.94-2.697,9.266-3.623
		c2.969,2.065,5.209,3.624,7.449,5.183c0.763-1.627,1.526-3.254,2.771-5.91c1.159,2.353,2.477,4.413,3.216,6.664
		c1.382,4.213,3.896,4.018,6.938,2.117c7.2-4.499,7.185-4.526,11.688,2.797c0.518,0.843,1.01,1.7,1.496,2.52
		c8.792-2.59,14.616-11.251,13.86-20.725c-0.331-4.143-0.382-8.025,3.706-10.565c0.395-0.245,0.887-0.768,0.882-1.155
		c-0.092-6.27-0.041-12.475,4.255-17.726c0.123-0.15-1.305-2.238-1.863-2.173c-4.964,0.585-9.896,1.451-17.145,2.601
		c-3.958-1.523-10.406-0.203-16.881,1.03c-5.015,0.956-10.072,1.687-15.092,2.613c-2.175,0.401-4.318,1.521-6.455,1.469
		c-3.425-0.084-6.823-0.969-10.252-1.314c-1.227-0.123-2.507,0.434-3.773,0.504c-1.742,0.096-3.493,0.023-5.241,0.023
		c-0.055-0.608-0.109-1.217-0.164-1.825c1.206-0.587,2.412-1.174,4.824-2.347c-4.923-4.191-9.454-8.049-13.984-11.906
		c-0.267,0.182-0.534,0.363-0.8,0.545c0.283,1.046,0.975,2.188,0.755,3.113c-0.34,1.435-1.01,3.147-2.115,3.905
		c-0.616,0.424-2.68-0.54-3.595-1.404c-3.404-3.213-3.743-7.018-1.006-10.772c2.268-3.11,1.303-5.1-1.078-7.726
		c-3.733-4.118-6.766-8.862-10.229-13.236c-3.382-4.272-6.801-8.535-10.498-12.528c-0.938-1.014-2.996-0.99-4.555-1.447
		c0.364-5.653-0.511-7.018-6.604-9.985c-2.403,2.374-1.68,4.817-0.575,7.632c4.484,11.414,8.76,22.91,12.371,35.543
		c-1.634-0.907-3.408-1.633-4.877-2.756c-4.743-3.625-9.312-7.479-14.073-11.079c-2.813-2.126-5.182-2.015-7.468,1.353
		c-3.056,4.501-6.686,8.617-10.144,12.837c-2.546,3.107-2.947,5.831,0.757,8.414c1.179,0.822,2.148,2.082,2.922,3.322
		c3.324,5.326,6.783,10.591,9.731,16.123c3.411,6.401,7.258,12.787,9.298,19.66c5.588,18.832,4.653,38.163,1.875,57.314
		c-0.675,4.648-3.881,9.073-6.464,13.268c-4.175,6.779-3.508,7.491-0.497,13.866c6.685,14.151,18.278,24.199,27.814,35.989
		c4.736,5.854,8.086,12.911,11.489,19.711c0.949,1.896,0.108,4.865-0.357,7.255c-1.185,6.08-2.829,12.102,3.927,16.332
		c0.778,0.486,1.357,2.775,0.895,3.435c-0.836,1.195-2.493,2.419-3.869,2.493c-2.052,0.11-4.157-0.766-6.857-1.358
		c-0.86,3.438-1.651,6.929-2.613,10.371c-1.25,4.472-2.127,9.155-4.154,13.26c-1.209,2.447-3.537,5.403-7.661,3.453
		c-2.034-0.962-4.473-1.066-8.309-1.903c4.171-2.371,7.129-4,10.034-5.719c2.912-1.723,5.389-9.102,3.637-11.974
		c-0.7-1.147-2.815-1.873-4.337-1.967c-1.938-0.12-3.986,0.406-5.875,1.004c-1.797,0.569-3.451,1.591-6.32,2.966
		c0.886-2.17,1.716-3.283,1.676-4.363c-0.041-1.111-0.931-2.192-1.471-3.33c2.389-0.905,4.922-1.865,8.349-3.164
		c-3.771-3.891-7.074-6.998-9.978-10.44c-1.149-1.362-1.414-3.47-2.081-5.237c1.85-0.362,3.877-1.387,5.516-0.952
		c3.832,1.018,7.45,2.816,11.208,4.148c3.786,1.342,5.854-1.087,6.798-4.062c1.086-3.422-2.011-3.639-4.23-4.024
		c-3.675-0.639-5.924-1.145-5.195-6.401c0.6-4.33-3.218-7.927-7.075-10.928c-3.558-2.768-6.099-6.873-8.974-10.479
		c-3.131-3.927-6.19-7.914-9.171-11.955c-2.604-3.531-5.341-7.011-7.5-10.809c-2.512-4.418-4.458-9.157-6.887-14.254
		c2.429-1.771,5.699-4.252,9.074-6.58c2.317-1.598,3.049-3.423,1.468-5.904c-1.605-2.519-2.966-5.247-4.886-7.498
		c-2.662-3.12-2.233-5.643,0.6-8.18c0.372-0.333,0.71-0.704,1.05-1.07c7.293-7.837,6.732-12.308-2.029-18.283
		c-1.663-1.134-2.812-3.023-4.197-4.563c0.292-0.373,0.584-0.747,0.876-1.12c0.759,0,1.53-0.089,2.273,0.019
		c1.517,0.221,3.018,0.547,4.525,0.83c0.092-1.725,0.936-3.992,0.149-5.08c-3.667-5.064-6.304-11.417-13.68-12.543
		c-0.947-0.145-1.78-1.033-2.665-1.577c0.212-0.493,0.425-0.986,0.638-1.48c4.637,1.685,9.274,3.369,14.627,5.314
		c-4.57-5.97-1.942-11.637-0.026-17.767c2.402-7.685-3.646-19.41-10.914-23.297c-0.67-0.357-1.56-0.565-2.306-0.479
		c-5.257,0.607-7.752-1.077-8.935-6.165c-1.135-4.878-8.909-10.675-13.767-10.266c-4.19,0.354-8.393-3.202-9.271-7.242
		c-0.411-1.891-1.75-3.645-2.908-5.292c-1.568-2.229-5.542-3.252-3.317-7.256c2.248-4.046,5.809-4.734,9.849-3.765
		c1.745,0.419,3.292,1.606,5.006,2.228c2.732,0.989,5.529,1.797,9.059,2.925c0-0.001-0.211,1.309,0.041,2.521
		c0.708,3.418,3.83,4.563,6.15,1.995c3.214-3.557,7.367-6.793,6.586-12.565c-0.085-0.635,0.502-1.497,1.002-2.051
		c2.51-2.776,0.805-4.448-1.507-5.928c-0.688-0.44-1.891-0.418-2.241-0.987c-1.318-2.143-2.381-4.442-3.539-6.683
		c2.226,0.09,4.773-0.492,6.621,0.391c6.686,3.191,6.032,3.265,7.458-3.913c0.682-3.436-0.488-5.817-0.976-8.754
		c-0.826-4.966-0.395-10.15-0.333-15.24c0.006-0.516,1.178-1.492,1.687-1.417c0.844,0.123,2.203,0.852,2.276,1.455
		c0.489,4.006,0.751,8.043,0.942,12.077c0.041,0.866-0.516,1.76-1.251,4.06c1.636-1.507,2.53-1.925,2.661-2.513
		c1.637-7.362,6.036-14.135,4.407-22.232c-0.469-2.333-0.219-5.151,0.675-7.352c2.243-5.521,0.083-10.406-1.472-15.411
		c-0.936-3.011-2.58-5.85-3.176-8.908c-1.322-6.785-2.185-13.66-3.235-20.498c0.423-0.29,0.846-0.581,1.269-0.871
		c3.517,3.033,6.959,6.16,10.574,9.073c3.163,2.549,6.655,4.7,9.738,7.336c1.688,1.443,3.217,3.344,4.158,5.348
		c7.408,15.776,14.335,31.789,22.155,47.354c2.256,4.492,6.825,7.877,10.533,11.57c4.225,4.209,8.625,8.247,13.054,12.243
		c1.252,1.131,2.87,1.856,4.32,2.768c0.694-1.448,1.627-2.834,2.019-4.359c0.466-1.815,0.468-3.749,0.671-5.632
		c0.473,0.007,0.945,0.015,1.417,0.022c0,1.384,0.146,2.785-0.024,4.147c-0.855,6.847,0.794,14.128,6.546,16.758
		c6.512,2.979,12.544,6.405,18.541,10.171c3.45,2.167,6.516,2.198,8.996-2.301c2.027-3.677,5.427-3.063,7.058,0.882
		c0.946,2.289,1.311,4.813,2.037,7.201c2.015,6.622,6.378,9.242,12.773,6.487c5.406-2.329,10.311-4.318,16.48-2.865
		c2.402,0.565,5.609-1.621,8.262-2.932c4.745-2.345,9.487-4.761,13.925-7.621c1.311-0.845,1.995-3.223,2.256-5.003
		c0.374-2.545,0.095-5.187,0.095-7.787c0.54-0.043,1.08-0.086,1.619-0.13c0.707,3.361,1.13,6.823,2.264,10.033
		c0.442,1.252,2.409,2.075,3.813,2.856c3.162,1.76,6.289,3.674,9.646,4.968c4.313,1.662,6.008,0.163,5.909-4.484
		c-0.022-1.1,0.269-2.206,0.535-4.221c5.792,7.151,13.271,9.014,21.072,10.726c5.36,1.177,8.954-0.44,11.099-4.824
		c2.662-5.438,8.84-9.485,7.057-16.804c-0.064-0.264,0.164-0.643,0.341-0.912c1.304-1.979,4.211-4.741,3.687-5.778
		c-3.025-5.984-6.75-11.634-10.563-17.175c-0.457-0.665-2.874-0.012-4.38,0.084c-1.193,0.076-2.395,0.364-3.562,0.247
		c-0.241-0.023-0.717-1.873-0.443-2.097c0.785-0.642,1.873-1.125,2.889-1.235c4.025-0.436,7.287-4.732,9.053-9.837
		c5.435-15.705,1.689-31.461,0.799-47.191c-0.255-4.49-5.701-8.299-10.409-7.965c-7.234,0.515-9.125-1.505-8.147-8.598
		c0.202-1.463,0.583-3.095,0.141-4.397c-0.415-1.221-1.811-2.109-2.775-3.144c-0.703,1.079-1.498,2.11-2.092,3.247
		c-1.429,2.739-2.628,5.61-4.227,8.241c-0.426,0.699-1.961,0.723-2.986,1.057c-0.344-1.199-0.762-2.385-0.988-3.605
		c-0.077-0.413,0.353-0.907,0.512-1.378c0.59-1.74,1.163-3.486,1.742-5.229c-0.611-0.151-1.584-0.623-1.779-0.404
		c-1.555,1.748-3.012,3.59-4.394,5.479c-0.877,1.199-1.64,3.63-2.339,3.588c-1.824-0.108-3.587-1.273-5.581-2.679
		c7.669-2.41,3.34-7.236,3.642-10.949c-0.441-0.26-0.882-0.521-1.322-0.78c-1.691,2.398-3.384,4.798-5.203,7.378
		c-10.577-3.064-5.251,5.934-6.657,10.479c-2.093-1.385-3.513-2.324-5.172-3.423c-1.022,1.155-1.969,2.225-3.141,3.548
		c-2.76-1.61-6.482-2.67-8.094-5.119c-1.056-1.604,0.945-5.219,1.775-8.789c-2.596,2.416-4.638,4.317-6.442,5.997
		c-1.4-2.29-2.483-4.061-3.567-5.831c-1.51,1.613-3.021,3.227-4.931,5.268c-3.055-1.923-6.16-1.78-7.244,3.498
		c-0.109,0.529-0.956,1.364-1.352,1.307c-6.018-0.867-6.654,3.851-7.93,9.073c-2.478-5.497-4.399-9.759-6.473-14.36
		c1.967-0.747,3.293-1.251,4.512-1.714c0.13-0.524,0.309-0.852,0.272-1.152c-0.368-2.995-0.781-5.984-1.164-8.978
		c-0.567-4.438-5.526-9.903-9.973-11.291c-1.945,1.726-4.022,4.874-5.457,4.604c-5.095-0.958-11.983,0.085-12.873-8.01
		c-0.117-1.065-1.549-2.073-1.487-3.052c0.091-1.441,0.599-3.65,1.588-4.109c5.31-2.462,10.993-3.697,16.359-6.575
		c4.201-2.253,10.916,0.146,16.504,0.594c0.431,0.034,0.804,0.978,1.176,1.519c3.889,5.643,8.487,5.713,12.012,0.001
		c0.439-0.712-0.054-2.833-0.755-3.267c-2.792-1.727-5.747-3.28-8.807-4.471c-12.66-4.924-26.336-2.259-39.289-5.1
		c-6.811-1.494-13.426-1.177-20.221,0.738c-2.61,0.735-5.889-1.063-8.892-1.516c-2.791-0.421-5.62-0.588-8.432-0.866
		c-5.262-0.52-10.675-0.444-15.743-1.729c-4.881-1.236-9.509-3.677-14.045-5.985c-2.346-1.193-4.252-3.248-6.358-4.914
		c0.233-0.386,0.467-0.771,0.7-1.157c1.489,0.288,2.979,0.576,4.941,0.956c-1.351-4.214-2.807-7.299-7.983-6.257
		c-1.352,0.271-3.038-0.759-4.484-1.39c-4.061-1.768-7.965-3.998-12.162-5.298c-1.752-0.543-4.645,0.168-6.065,1.404
		c-5.916,5.149-12.625,3.892-19.462,3.506c-4.059-0.229-8.578-0.161-12.158,1.426c-2.928,1.298-4.891,4.955-6.958,7.801
		c-0.278,0.383,1.38,2.119,2.068,3.271c0.608,1.02,1.829,2.478,1.514,3.071c-0.607,1.146-2.008,2.17-3.281,2.527
		c-0.57,0.16-1.54-1.538-2.481-2.163c-1.694-1.125-3.578-3.06-5.253-2.935c-7.755,0.579-14.111,4.848-19.616,9.78
		c-9.084,8.14-16.592,17.872-21.722,28.888c-2.395,5.141-8.141,10.363-3.688,17.377c0.44,0.693-0.603,2.354-1.005,3.55
		c-1.067,3.169-2.658,6.255-3.146,9.509c-1.188,7.926-2.85,15.971-2.511,23.891c0.431,10.059,0.601,20.998,4.7,29.774
		c3.735,7.996,6.009,14.188,0.427,21.737c-5.886-0.749-8.036,1.695-6.285,8.174c0.434,1.605,0.74,3.248,1.041,4.886
		c0.619,3.368-0.193,5.823-3.88,6.965c-1.177,0.364-2.724,1.747-2.824,2.787c-0.112,1.159,0.956,3.187,1.987,3.576
		c5.47,2.068,5.403,4.443,1.085,7.824c-0.91,0.712-1.105,2.337-1.528,3.309c1.536,1.637,2.85,3.037,4.163,4.437
		c-2.591,2.218-4.864,5.119-7.842,6.504c-5.231,2.432-7.953,6.211-8.117,12.295c-0.057,2.088-0.94,4.886-2.455,6.084
		c-10.801,8.546-8.036,15.867-6.027,25.497c0.501,2.399,2.093,4.554,2.789,6.936c0.63,2.157,0.72,4.473,1.1,7.067
		c2.369-0.991,4.554-1.905,6.206-2.597c-2.087,4.588-4.371,9.154-6.25,13.881c-1.485,3.733-1.194,6.811,5.068,5.812
		c-0.674,2.282-0.723,4.234-1.695,5.442c-5.467,6.792-3.124,12.923,1.829,18.317c3.042,3.314,3.622,6.179,2.008,10.255
		c-2.67,6.742-2.366,13.141,2.506,19.216c4.981,6.212,9.08,13.137,14.121,19.294c1.96,2.396,5.44,3.547,8.866,5.657
		c0.244,3.512,0.596,8.591,0.965,13.913c-8.16-4.636-11.972-12.891-16.845-20.053c-6.268-9.212-11.368-19.223-17.68-28.401
		c-5.916-8.603-7.575-18.505-9.51-28.176c-2.24-11.196-2.942-22.705-4.207-34.09c-1.663-14.957,1.046-29.628,6.977-42.97
		c5.543-12.471,1.312-23.807,0.819-35.818c-0.56-13.648,0.84-27.557,3.014-41.092c2.544-15.843,9.742-30.288,16.793-44.637
		c1.075-2.188,1.615-4.714,2.021-7.147c3.408-20.484,8.112-40.707,19.656-58.22c5.388-8.175,12.775-15.381,20.395-21.641
		c8.415-6.912,17.715-13.062,27.421-17.982c7.243-3.672,15.615-5.617,23.712-6.995c14.633-2.489,29.399-4.415,44.187-5.671
		c5.792-0.492,11.769,1.814,17.702,2.163c3.938,0.231,7.954-0.691,11.921-1.206c2.882-0.373,5.82-0.649,8.598-1.443
		c14.727-4.206,29.388-8.646,44.125-12.815c4.395-1.244,6.769-3.69,8.603-8c2.918-6.857,6.444-13.613,10.727-19.697
		c6.459-9.177,9.132-19.884,13.721-29.797c4.59-9.915,10.472-19.228,15.667-28.87c2.491-4.623,4.374-9.604,7.153-14.033
		c1.989-3.17,5.014-5.69,7.57-8.507c0.439-0.483,1-0.93,1.244-1.504c2.633-6.204,5.448-12.349,7.695-18.692
		c0.897-2.533,0.806-5.536,0.663-8.299c-0.531-10.252-0.398-20.348,5.212-29.484c3.381-5.506,8.922-5.536,12.93-0.391
		c4.593,5.896,9.367,11.66,14.273,17.299c1.22,1.401,3.197,2.862,4.921,2.985c8.61,0.613,17.25,0.887,25.885,1.091
		c6.838,0.162,11.488-3.756,15.391-8.843c2.128-2.775,4.092-5.699,6.438-8.277c1.525-1.676,3.605-2.85,6.645-5.172
		c-1.671,16.229-3.618,30.95,11.621,40.547c-1.334-0.91-2.676-1.811-4.001-2.732c-1.505-1.046-3.011-2.091-4.489-3.174
		c-1.207-0.885-2.29-1.973-3.576-2.714c-5.394-3.112-8.115-2.101-10.25,3.684c-2.994,8.113-1.428,13.9,5.395,19.942
		c3.037-3.971,9.465-5.153,13.152-2.42c2.895,2.146,3.951,11.653,1.03,14.312c-1.188,1.08-4.458,1.095-6.058,0.24
		c-3.165-1.689-5.8-4.357-8.706-6.551c-1.825-1.378-3.745-2.629-6.11-4.277c-0.568,1.791-0.953,3.01-1.41,4.452
		c-1.977-1.174-3.6-2.138-5.743-3.411c-0.691,4.618-1.466,8.554-1.829,12.526c-0.467,5.109-3.358,7.539-8.352,6.782
		c-1.08-0.164-2.24,0.3-3.368,0.333c-4.229,0.122-8.501,0.539-12.671,0.072c-1.379-0.154-2.496-2.644-3.734-4.065
		c1.429-0.803,2.857-1.605,4.53-2.547c-2.566-2.63-5.245-5.646-10.12-6.549c-7.977-1.477-15.723-3.482-23.921-1.043
		c-3.429,1.021-12.188,7.39-13.028,10.998c-0.24,1.035,0.34,2.669,1.121,3.457c2.194,2.22,4.729,4.098,7.047,6.202
		c0.998,0.907,1.791,2.041,3.135,3.604c-2.698,0.3-4.425,0.492-7.008,0.779c1.228,2.484,2.192,4.438,3.389,6.857
		c-5.643,1.519-4.109,3.979-1.373,7.397c4.385,5.479,8.141,11.459,12.295,17.129c0.833,1.137,2.268,1.831,3.418,2.736
		c1.287,1.011,2.566,2.03,4.205,3.329c-3.09,1.714-5.338,3.898-7.647,3.965c-2.108,0.061-4.853-1.704-6.323-3.485
		c-4.748-5.753-8.954-11.951-13.584-17.809c-0.823-1.042-2.939-2.048-3.984-1.689c-1.467,0.502-2.737,2.14-3.659,3.569
		c-3.539,5.491-6.608,11.32-10.548,16.492c-0.979,1.284-4.649,1.06-6.944,0.685c-4.68-0.766-6.438,1.296-6.746,5.573
		c-0.202,2.814-0.064,5.823-1.06,8.36c-0.934,2.381-2.926,4.516-4.895,6.259c-1.293,1.145-4.754,1.255-4.842,2.084
		c-0.263,2.479,0.576,5.101,1.165,7.625c0.168,0.721,0.951,1.299,1.899,2.519c-1.63,1.058-3.227,1.808-4.43,2.966
		c-0.972,0.936-2.092,2.416-1.998,3.56c0.091,1.106,1.495,2.761,2.59,3.015c4.498,1.045,6.184,3.327,4.853,7.919
		c-0.323,1.114,0.052,2.976,0.837,3.778c5.708,5.836,2.304,12.964,2.878,19.472c0.504,5.713-0.447,11.615,0.533,17.208
		c0.953,5.434,6.217,6.598,11.262,7.946c0-1.774,0-3.144,0-5.167c3.297,0.572,6.313,1.097,9.642,1.675c0-1.472,0-2.695,0-4.079
		c3.504-0.81,6.755-1.561,9.199-2.125c0.885,3.033,0.875,5.934,2.32,7.395c3.969,4.012,9.107,3.079,13.432,0.82
		c3.688-1.925,5.997-2.523,9.68,0.451c1.822,1.471,7.14,1.017,9.16-0.647c4.686-3.861,10.779-2.416,15.42-5.44
		c1.42-0.925,2.687-2.082,4.023-3.133L554.112,329.939z M589.646,603.298c2.708-0.607,5.706-0.666,8.073-1.918
		c9.101-4.813,15.659-12.408,20.523-21.253c1.33-2.419,0.329-6.121,0.397-9.233c-2.611,1.363-5.227,2.716-7.824,4.105
		c-0.271,0.145-0.453,0.485-0.636,0.762c-3.909,5.915-9.554,8.743-16.364,10.427c-6.08,1.502-11.896,4.167-17.713,6.594
		c-2.41,1.006-4.263,3.311-0.986,5.108C579.578,600.337,583.545,604.762,589.646,603.298z M533.24,593.368
		c1.943,1.624,3.182,2.995,4.709,3.84c1.568,0.867,3.506,1.888,5.135,1.682c7.762-0.981,19.321-10.357,18.104-19.59
		c-0.145-1.097,0.545-2.286,0.496-3.417c-0.085-1.934-0.058-5.314-0.769-5.505c-2.103-0.563-4.833-0.475-6.797,0.457
		c-6.079,2.881-12.017,6.104-17.803,9.54c-2.597,1.543-4.704,3.912-7.576,6.37c3.771,1.268,6.081,2.045,9.421,3.168
		C535.866,591.523,534.721,592.328,533.24,593.368z M561.976,555.887c0.304-7.254-2.349-9.752-9.519-9.006
		c-2.801,0.292-5.633,0.891-8.407,0.703c-7.938-0.536-13.619,2.867-17.452,9.535c-0.602,1.048-0.391,3.867-0.018,3.973
		c4.166,1.182,8.414,2.136,12.689,2.851c2.895,0.483,6.135-0.19,8.754,0.84C555.105,567.569,561.65,563.631,561.976,555.887z
		 M547.683,624.077c9.093,0.025,12.396-2.678,13.011-11.7c0.324-4.746-0.169-9.595-0.75-14.341
		c-0.467-3.807-3.291-4.642-6.389-2.085c-3.813,3.147-7.197,6.926-11.33,9.544c-4.33,2.743-7.037,4.439-4.259,10.645
		C540.781,622.427,541.092,624.059,547.683,624.077z M561.609,624.134c-8.198,2.146-15.433,4.172-19.6,11.179
		c-0.874,1.47-1.127,4.604-0.195,5.609c2.751,2.968,6.01,5.662,9.534,7.634c1.778,0.994,5.045,1.003,6.751-0.021
		c1.727-1.036,2.982-3.799,3.328-5.982c0.615-3.884,0.438-7.901,0.49-11.864C561.944,628.749,561.744,626.806,561.609,624.134z
		 M566.924,666.919c-4.715-4.431-4.599-4.431-4.598-10.594c0-2.431-0.938-5.201-4.069-4.157c-6.196,2.065-12.307,4.486-18.192,7.303
		c-1.133,0.542-1.074,3.573-1.564,5.456c1.652-0.021,3.347,0.172,4.945-0.132c1.172-0.223,2.326-1.729,3.301-1.563
		c2.728,0.463,5.358,1.496,8.092,2.323c-1.261,0.815-2.512,1.623-3.762,2.432c0.142,0.408,0.284,0.817,0.426,1.226
		C556.344,668.492,561.186,667.772,566.924,666.919z M466.28,318.469c-0.064-0.493-0.129-0.986-0.194-1.479
		c-1.345-0.078-2.715-0.357-4.032-0.198c-5.999,0.726-11.969,1.71-17.978,2.327c-3.501,0.36-4.469,1.832-2.949,4.917
		c1.021,2.074,1.834,4.438,3.407,6.002c1.641,1.633,4.082,2.462,6.173,3.642c0.58-1.643,0.98-3.382,1.788-4.903
		c0.838-1.578,2.441-4.354,3.074-4.188C461.518,326.15,463.097,321.059,466.28,318.469z M529.117,592.633
		c-0.066-0.731-0.133-1.462-0.198-2.192c-8.741-1.457-17.452-3.156-26.239-4.219c-2.572-0.312-5.363,1.189-8.054,1.86
		c2.774,1.406,5.409,3.438,8.351,4.086c5.607,1.234,11.371,2.025,17.104,2.31C523.056,594.624,526.104,593.295,529.117,592.633z
		 M500.957,613.888c8.402,4.232,15.645,8.497,24.777,7.871C521.907,610.728,513.396,607.815,500.957,613.888z M558.172,162.267
		c0.183,4.333,9.984,10.478,12.924,8.991c0.934-0.473,1.879-1.559,2.172-2.555c1.344-4.554-1.125-8.057-4.559-9.998
		c-2.059-1.163-5.5-0.521-8.087,0.174C559.371,159.215,558.656,161.545,558.172,162.267z M589.492,548.786
		c-1.465-1.252-2.977-2.42-4.346-3.736c-3.745-3.6-7.949-2.376-12.014-0.984c-0.65,0.223-1.325,2.608-0.895,3.392
		C574.721,551.966,585.432,552.863,589.492,548.786z M524.592,634.97c-2.824,1.758-4.867,3.028-6.91,4.3
		c2.068,1.39,4.073,3.751,6.223,3.89c2.077,0.135,4.303-2.021,6.463-3.169C528.586,638.44,526.803,636.892,524.592,634.97z
		 M397.53,322.787c-3.715-4.53-8.762-4.408-13.423-5.126c-0.313-0.048-1.561,2.096-1.278,2.73
		C384.178,323.413,393.83,325.105,397.53,322.787z M570.473,234.799c0.143-0.315,0.285-0.631,0.429-0.946
		c-2.612-2.27-5.259-4.501-7.82-6.825c-1.015-0.921-1.78-2.119-2.819-3.004c-0.147-0.126-1.779,0.887-1.73,1.236
		c0.209,1.533,0.321,3.778,1.311,4.38C563.192,231.677,566.9,233.125,570.473,234.799z M497.788,383.184
		c-1.33-1.525-2.183-2.504-3.036-3.482c-1.1,1.106-2.679,2.056-3.114,3.38c-0.251,0.767,1.341,2.138,2.104,3.237
		C494.909,385.414,496.076,384.51,497.788,383.184z M490.621,340.005c-0.457,0.839-0.913,1.679-1.37,2.518
		c1.938,0.926,3.85,1.925,5.856,2.668c0.203,0.075,0.978-1.396,1.487-2.149C494.603,342.029,492.612,341.018,490.621,340.005z
		 M571.031,663.701c0.702,0.292,1.404,0.584,2.105,0.876c0.74-1.787,1.48-3.575,2.221-5.362c-0.689-0.285-1.959-0.856-1.98-0.813
		C572.523,660.134,571.785,661.921,571.031,663.701z"/>
	<path fill-rule="evenodd" clip-rule="evenodd" d="M647.504,392.951c0,5.73,0,9.728,0,13.406c-2.208,1.002-4.536,2.059-7.396,3.355
		c-1.706-2.805-7.788-3.611-5.304-9.52c3.916-9.311,7.533-11.488,15.409-11.02c2.688-1.177,5.376-2.353,8.064-3.529
		c0.259,1.599,0.954,3.271,0.699,4.784C657.837,397.215,653.865,397.655,647.504,392.951z"/>
	<path fill-rule="evenodd" clip-rule="evenodd" d="M390.47,446.203c-7.056-1.298-7.056-1.298-14.376-10.783
		c-3.997,5.671-7.548,2.28-10.706-0.875c-1.119-1.118-1.1-3.375-1.601-5.112c1.776,0.153,3.619,0.071,5.303,0.548
		c0.996,0.282,1.741,1.45,2.369,2.014c2.499-0.849,4.73-1.657,6.994-2.363c3.266-1.018,5.839-0.366,7.465,2.985
		c0.474,0.978,1.497,1.756,2.406,2.443C393.35,438.865,393.685,440.498,390.47,446.203z"/>
	<path fill-rule="evenodd" clip-rule="evenodd" d="M277.33,568.933c-9.604,1.011-14.774-7.381-11.096-17.193
		c0.935-2.496,1.149-5.254,1.853-7.848c0.318-1.173,1.024-2.24,1.555-3.355c1.029,0.671,2.367,1.123,3.03,2.055
		c2.111,2.969,3.6,5.988,0.253,9.36c-0.621,0.625-0.166,3.079,0.569,4.162C277.373,561.823,277.459,561.765,277.33,568.933z"/>
	<path fill-rule="evenodd" clip-rule="evenodd" d="M407.392,374.521c0-4.904,0-9.809,0-14.713c0.325-0.271,0.65-0.541,0.976-0.812
		c2.809,3.994,5.987,7.805,8.139,12.127c0.473,0.948-2.464,5.089-4.246,5.403c-7.267,1.281-14.756,2.347-21.887-0.835
		c-1.121-0.5-1.791-2.011-2.669-3.054c1.329-0.702,2.599-1.771,4.004-1.996c1.188-0.19,2.658,0.374,3.779,1.004
		c1.654,0.93,2.966,2.711,4.689,3.208c1.732,0.499,3.791-0.129,5.706-0.263C406.386,374.567,406.889,374.544,407.392,374.521z"/>
	<path fill-rule="evenodd" clip-rule="evenodd" d="M750.84,566.293c1.354,6.956,3.073,13.35,3.627,19.843
		c0.222,2.601-1.783,5.66-3.453,8.033c-0.779,1.108-3.19,1.454-4.825,1.376c-0.616-0.029-1.155-2.222-1.683-3.448
		c-1.424-3.31-0.552-5.828,2.038-8.393c1.02-1.009,1.199-3.812,0.593-5.332C745.589,574.483,746.598,569.79,750.84,566.293z"/>
	<path fill-rule="evenodd" clip-rule="evenodd" d="M500.428,684.652c-5.533,0.715-11.713-0.725-15.071,5.977
		c-1.478-4.909-1.059-10.977-9.316-7.777c-0.029-0.63-0.059-1.261-0.088-1.891c1.096-1.018,2.97-3.051,3.17-2.897
		c2.419,1.853,3.863,0.5,6.029-0.734c2.763-1.573,12.363,2.116,14.493,4.908C500.004,682.708,500.045,683.423,500.428,684.652z"/>
	<path fill-rule="evenodd" clip-rule="evenodd" d="M222.49,539.928c1.272,4.405,1.976,9.092,3.975,13.139
		c2.078,4.207,1.232,8.034,0.25,11.966c-0.331,1.325-1.951,2.328-2.981,3.479c-0.741-1.049-1.475-2.104-2.225-3.146
		c-2.595-3.605-1.559-7.019,0.222-10.612c0.5-1.008,0.178-3-0.547-3.938c-2.972-3.845-1.071-7.27-0.233-10.822
		C221.463,539.973,221.977,539.95,222.49,539.928z"/>
	<path fill-rule="evenodd" clip-rule="evenodd" d="M335.278,759.489c-9.54,1.924-23.396-7.081-24.617-14.68
		C320.684,746.48,327.675,753.444,335.278,759.489z"/>
	<path fill-rule="evenodd" clip-rule="evenodd" d="M776.802,587.423c2.278,0.788,3.756,1.299,4.694,1.624
		c1.956-8.478,3.85-16.68,5.742-24.882c0.481,0.022,0.962,0.046,1.443,0.069c0,2.957,0.994,6.438-0.223,8.757
		c-2.064,3.936-1.344,7.528-0.971,11.407c0.186,1.928,0.125,4.092-0.596,5.83c-0.633,1.527-2.216,3.437-3.609,3.646
		c-1.294,0.194-3.022-1.488-4.307-2.63C778.167,590.524,777.822,589.282,776.802,587.423z"/>
	<path fill-rule="evenodd" clip-rule="evenodd" d="M693.98,764.777c4.308-3.857,7.46-7.104,11.044-9.767
		c3.354-2.491,7.166-4.363,11.607-7.002C714.168,757.256,702.74,765.992,693.98,764.777z"/>
	<path fill-rule="evenodd" clip-rule="evenodd" d="M295.434,768.742c-6.246,0.298-7.801-4.634-10.621-7.927
		c3.503-5.375,2.881-7.602-4.081-12.171c2.417,0,4.704-0.517,5.044,0.079C289.365,755.001,295.849,759.911,295.434,768.742z"/>
	<path fill-rule="evenodd" clip-rule="evenodd" d="M478.021,399.825c2.541,3.155,5.63,5.732,6.835,9.004
		c0.633,1.718-1.532,5.248-3.396,6.811c-1.112,0.933-4.13-0.213-6.198-0.77c-0.464-0.126-1.015-2.271-0.723-2.512
		c3.754-3.088,1.842-7.098,1.977-10.766C476.525,401.343,476.911,401.106,478.021,399.825z"/>
	<path fill-rule="evenodd" clip-rule="evenodd" d="M739.616,469.881c0.405,4.983,0.8,9.968,1.221,14.95
		c0.163,1.938,0.688,3.907,0.468,5.795c-0.137,1.18-1.168,2.494-2.177,3.227c-0.467,0.339-2.68-0.577-2.675-0.906
		c0.103-7.718,0.399-15.433,0.662-23.148C737.948,469.826,738.782,469.854,739.616,469.881z"/>
	<path fill-rule="evenodd" clip-rule="evenodd" d="M417.855,446.896c2.093-2.091,4.186-4.182,6.279-6.272
		c-0.233-0.616-0.467-1.233-0.7-1.851c0,2.625,0,5.249,0,7.366c1.094,1.979,2.272,3.635,2.864,5.479
		c0.174,0.541-1.662,2.45-1.993,2.313c-2.441-1.003-5.051-2.017-6.952-3.748c-1.12-1.019-1.039-3.356-1.498-5.101
		C416.521,445.688,417.188,446.292,417.855,446.896z"/>
	<path fill-rule="evenodd" clip-rule="evenodd" d="M741.973,747.937c-1.707,7.273-1.707,7.273,1.693,11.012
		c-2.4,3.092-4.879,6.283-7.844,10.103C732.984,762.259,736.456,752.216,741.973,747.937z"/>
	<path fill-rule="evenodd" clip-rule="evenodd" d="M502.106,444.198c-4.069-0.729-7.01-11.421-4.856-16.949
		c5.244,2.441,6.905,5.843,5.577,10.724C502.285,439.961,502.33,442.11,502.106,444.198z"/>
	<path fill-rule="evenodd" clip-rule="evenodd" d="M281.734,451.809c0.875,0.261,1.168,0.297,1.172,0.356
		c0.546,6.92,1.104,13.839,1.491,20.769c0.018,0.312-2.033,1.2-2.24,0.982c-0.843-0.887-1.927-2.129-1.875-3.187
		C280.595,464.517,281.202,458.319,281.734,451.809z"/>
	<path fill-rule="evenodd" clip-rule="evenodd" d="M454.961,418.819c5.564,3.529,6.818,8.477,3.495,12.943
		c-0.609,0.819-2.975,1.524-3.193,1.244c-1.226-1.579-2.894-3.519-2.806-5.254C452.601,424.894,453.971,422.097,454.961,418.819z"/>
	<path fill-rule="evenodd" clip-rule="evenodd" d="M264.141,599.106c3.29-1.37,5.5-2.455,7.816-3.217
		c3.484-1.146,5.565,0.441,5.846,3.917c0.118,1.462-0.775,3.005-1.208,4.512c-1.375-0.624-2.734-1.285-4.128-1.864
		C270.054,601.452,267.619,600.501,264.141,599.106z"/>
	<path fill-rule="evenodd" clip-rule="evenodd" d="M416.135,423.329c-1.186,2.401-2.24,4.538-3.636,7.365
		c-2.846-4.846-5.38-9.158-7.913-13.47c0.385-0.436,0.769-0.871,1.153-1.307C409.097,418.312,412.454,420.705,416.135,423.329z"/>
	<path fill-rule="evenodd" clip-rule="evenodd" d="M732.385,445.362c0.735-4.073,1.159-7.669,2.092-11.129
		c0.562-2.083,2.096-3.813,4.242-1.279C741.258,435.949,737.281,444.461,732.385,445.362z"/>
	<path fill-rule="evenodd" clip-rule="evenodd" d="M608.475,429.692c-1.412-2.235-3.149-4.261-2.85-4.63
		c1.865-2.293,4.186-4.216,6.355-6.261c0.861,1.456,2.795,3.506,2.381,4.255C613.12,425.298,610.959,427.029,608.475,429.692z"/>
	<path fill-rule="evenodd" clip-rule="evenodd" d="M608.75,391.371c0.707,3.763,1.413,7.524,2.34,12.457
		c-3.371-2.261-5.663-3.797-8.235-5.521c1.099-2.042,2.388-4.438,3.677-6.836C607.271,391.438,608.01,391.404,608.75,391.371z"/>
	<path fill-rule="evenodd" clip-rule="evenodd" d="M289.752,428.954c-0.718,0.427-1.575,0.936-2.431,1.444
		c-1.175-3.045-2.4-6.072-3.432-9.165c-0.085-0.255,1.224-1.417,1.749-1.33c0.782,0.128,1.823,0.856,2.083,1.573
		C288.499,423.623,288.951,425.888,289.752,428.954z"/>
	<path fill-rule="evenodd" clip-rule="evenodd" d="M620.219,402.25c-0.687,3.199-1.373,6.399-2.266,10.563
		c-1.707-0.94-3.514-1.354-4.065-2.418c-0.462-0.891,0.295-2.685,0.954-3.823c0.971-1.68,2.334-3.132,3.53-4.681
		C618.987,402.011,619.604,402.13,620.219,402.25z"/>
	<path fill-rule="evenodd" clip-rule="evenodd" d="M430.259,388.128c6.816-0.977,8.851,1.364,7.798,8.774
		C435.712,394.264,433.367,391.626,430.259,388.128z"/>
	<path fill-rule="evenodd" clip-rule="evenodd" d="M753.982,624.854c-2.274,1.488-4.549,2.976-8.185,5.354c0-3.123,0-5.265,0-7.405
		c2.783,0.201,5.566,0.402,8.35,0.604C754.093,623.89,754.038,624.372,753.982,624.854z"/>
	<path fill-rule="evenodd" clip-rule="evenodd" d="M255.06,621.517c-0.629,3.012-1.832,5.672-5.682,5.001
		c-1.085-0.189-1.901-1.927-2.841-2.954c2.463-1.313,4.926-2.624,7.388-3.937C254.304,620.257,254.682,620.887,255.06,621.517z"/>
	<path fill-rule="evenodd" clip-rule="evenodd" d="M514.715,308.642c-2.109,0.659-4.291,1.977-6.301,1.753
		c-1.406-0.157-2.578-2.421-3.854-3.744c1.45-0.347,2.917-1.027,4.347-0.96c1.864,0.089,3.7,0.77,5.549,1.195
		C514.541,307.471,514.628,308.057,514.715,308.642z"/>
	<path fill-rule="evenodd" clip-rule="evenodd" d="M403.939,431.157c2.822,2.061,5.754,3.994,8.383,6.276
		c0.609,0.528,0.184,2.248,0.235,3.419c-1.109-0.189-2.652,0.016-3.251-0.64c-2.272-2.489-4.239-5.258-6.32-7.921
		C403.304,431.914,403.622,431.535,403.939,431.157z"/>
	<path fill-rule="evenodd" clip-rule="evenodd" d="M532.555,275.963c-2.836,0.692-4.701,1.669-6.348,1.382
		c-1.279-0.224-2.545-1.874-3.295-3.188c-0.35-0.613,0.556-2.789,0.863-2.783c1.337,0.026,2.77,0.392,3.966,1.02
		C529.119,273.116,530.285,274.244,532.555,275.963z"/>
	<path fill-rule="evenodd" clip-rule="evenodd" d="M628.75,399.282c-0.462-2.903-1.006-5.797-1.307-8.717
		c-0.052-0.509,0.882-1.521,1.439-1.584c0.605-0.067,1.802,0.629,1.879,1.125c0.455,2.936,0.66,5.91,0.948,8.871
		C630.723,399.079,629.736,399.181,628.75,399.282z"/>
	<path fill-rule="evenodd" clip-rule="evenodd" d="M353.954,404.528c-2.292,3.236-4.637,4.217-7.125,1.478
		c-0.968-1.065-0.927-3.047-1.345-4.611c1.408,0.266,2.876,0.366,4.208,0.844C351.022,402.716,352.216,403.572,353.954,404.528z"/>
	<path fill-rule="evenodd" clip-rule="evenodd" d="M233.889,598.363c-1.954,1.271-3.908,2.542-5.862,3.813
		c-0.421-1.837-0.842-3.675-1.264-5.512c2.085-0.333,4.17-0.666,6.256-0.999C233.309,596.564,233.599,597.464,233.889,598.363z"/>
	<path fill-rule="evenodd" clip-rule="evenodd" d="M490.364,315.308c3.57-2.497,7.139-4.994,11.409-7.981
		c-0.211,3.823-0.211,3.823-10.227,9.409C491.152,316.26,490.758,315.784,490.364,315.308z"/>
	<path fill-rule="evenodd" clip-rule="evenodd" d="M652.15,361.51c1.279-0.759,2.523-1.588,3.848-2.257
		c1.1-0.555,2.273-1.123,3.459-1.241c0.325-0.032,1.341,1.745,1.111,2.32c-0.498,1.246-1.401,2.851-2.498,3.208
		c-1.46,0.476-3.262-0.097-4.916-0.219C652.819,362.718,652.485,362.114,652.15,361.51z"/>
	<path fill-rule="evenodd" clip-rule="evenodd" d="M480.044,429.634c6.524,3.104,7.058,5.305,3.016,10.74
		C482.059,436.806,481.192,433.72,480.044,429.634z"/>
	<path fill-rule="evenodd" clip-rule="evenodd" d="M463.415,454.144c-3.447-2.021-5.132-4.697-3.521-8.597
		c0.666-0.251,1.331-0.503,1.996-0.755c1.06,2.875,2.119,5.75,3.179,8.626C464.517,453.659,463.966,453.901,463.415,454.144z"/>
	<path fill-rule="evenodd" clip-rule="evenodd" d="M384.614,410.449c3.405,0.523,5.336,0.82,7.271,1.118
		c-0.741,2.701-1.353,4.933-2.287,8.336C387.937,416.752,386.614,414.243,384.614,410.449z"/>
	<path fill-rule="evenodd" clip-rule="evenodd" d="M759.479,332.816c-1.914,1.391-3.217,2.817-3.677,2.584
		c-1.501-0.762-2.695-2.129-4.007-3.264c0.977-0.936,2.123-2.762,2.893-2.614C756.108,329.794,757.307,331.223,759.479,332.816z"/>
	<path fill-rule="evenodd" clip-rule="evenodd" d="M626.414,385.793c-2.535-1.66-4.607-3.017-7.113-4.658
		c1.602-0.931,3.758-2.186,6.729-3.912C626.184,380.651,626.3,383.245,626.414,385.793z"/>
	<path fill-rule="evenodd" clip-rule="evenodd" d="M472.646,434.915c0.625-3.356-1.873-7.593,4.297-10.657
		c-0.963,4.485-1.681,7.826-2.397,11.166C473.913,435.254,473.279,435.085,472.646,434.915z"/>
	<path fill-rule="evenodd" clip-rule="evenodd" d="M627.447,410.832c1.428-1.342,2.414-2.269,3.4-3.195
		c0.953,1.132,2.846,2.486,2.644,3.347c-0.315,1.338-2.056,2.341-3.192,3.485C629.514,413.468,628.729,412.466,627.447,410.832z"/>
	<path fill-rule="evenodd" clip-rule="evenodd" d="M540.525,298.836c-2.229,0.943-4.457,1.887-6.686,2.83
		c-0.389-0.281-0.777-0.563-1.164-0.845c0.614-1.37,0.909-3.52,1.917-3.934c1.616-0.663,3.704-0.178,5.594-0.178
		C540.299,297.419,540.412,298.127,540.525,298.836z"/>
	<path fill-rule="evenodd" clip-rule="evenodd" d="M241.531,579.21c-0.792,2.297-1.509,4.626-2.464,6.853
		c-0.126,0.294-1.656,0.354-2.181-0.001c-0.478-0.323-0.862-1.556-0.614-2.046c0.979-1.932,2.224-3.728,3.37-5.574
		C240.271,578.697,240.901,578.954,241.531,579.21z"/>
	<path fill-rule="evenodd" clip-rule="evenodd" d="M390.688,423.624c1.1,2.854,2.199,5.71,3.299,8.564
		c-0.481,0.212-0.963,0.423-1.444,0.635c-2.572-2.207-4.711-4.617-3.74-8.499C389.432,424.091,390.06,423.857,390.688,423.624z"/>
	<path fill-rule="evenodd" clip-rule="evenodd" d="M754.41,341.603c-2.163,0.937-4.314,1.905-6.527,2.703
		c-0.1,0.036-0.758-1.472-1.155-2.261c2.155-1.04,4.31-2.079,6.465-3.119C753.598,339.818,754.004,340.71,754.41,341.603z"/>
	<path fill-rule="evenodd" clip-rule="evenodd" d="M228.208,565.881c3.041-2.488,6.082-4.976,9.123-7.463
		c0.419,0.479,0.838,0.957,1.256,1.436c-2.951,2.52-5.902,5.039-8.853,7.559C229.226,566.901,228.717,566.391,228.208,565.881z"/>
	<path fill-rule="evenodd" clip-rule="evenodd" d="M423.69,409.105c-3.099-0.475-5.149-0.789-7.632-1.169
		c0.495-1.642,1.016-3.368,1.959-6.495C420.258,404.469,421.781,406.526,423.69,409.105z"/>
	<path fill-rule="evenodd" clip-rule="evenodd" d="M643.068,439.904c0.486-1.777,0.971-3.554,1.456-5.331
		c1.143,0.455,2.284,0.91,3.427,1.365c-0.748,1.641-1.497,3.28-2.246,4.921C644.826,440.541,643.947,440.223,643.068,439.904z"/>
	<path fill-rule="evenodd" clip-rule="evenodd" d="M266.4,582.633c0.847,2.174,1.694,4.349,2.542,6.523
		c-0.86,0.156-2.081,0.752-2.518,0.393c-2.021-1.658-3.837-3.58-2.012-6.257C265.075,583.072,265.738,582.853,266.4,582.633z"/>
	<path fill-rule="evenodd" clip-rule="evenodd" d="M288.268,341.156c-1.067,0.378-2.369,1.329-3.152,1.01
		c-1.516-0.618-2.741-1.951-4.086-2.988c0.997-0.53,2.097-1.627,2.967-1.467c1.535,0.282,2.928,1.331,4.381,2.059
		C288.341,340.231,288.304,340.694,288.268,341.156z"/>
	<path fill-rule="evenodd" clip-rule="evenodd" d="M554.201,329.848c-2.361-0.949-4.783-1.781-7.02-2.966
		c-0.358-0.19,0.117-1.955,0.207-2.991c1.021,0.28,2.381,0.245,2.995,0.905c1.432,1.539,2.505,3.412,3.726,5.146
		C554.112,329.939,554.201,329.848,554.201,329.848z"/>
	<path fill-rule="evenodd" clip-rule="evenodd" d="M398.537,440.511c1.278,1.999,2.4,3.229,2.798,4.662
		c0.14,0.503-1.498,1.5-2.324,2.271c-0.914-1.228-2.091-2.356-2.612-3.733C396.193,443.167,397.448,442.07,398.537,440.511z"/>
	<path fill-rule="evenodd" clip-rule="evenodd" d="M261.651,563.562c1.549,1.855,3.098,3.712,4.74,5.68
		C261.974,571.323,260.655,570.006,261.651,563.562z"/>
	<path fill-rule="evenodd" clip-rule="evenodd" d="M491.123,418.265c-1.961,2.572-3.921,5.144-6.442,8.449
		C483.896,422.035,485.157,420.341,491.123,418.265z"/>
	<path fill-rule="evenodd" clip-rule="evenodd" d="M513.092,276.169c-2.498,0.65-4.996,1.301-7.494,1.951
		c-0.135-0.486-0.271-0.972-0.406-1.458c2.156-1.95,4.17-4.336,7.455-2.821C512.795,274.616,512.943,275.393,513.092,276.169z"/>
	<path fill-rule="evenodd" clip-rule="evenodd" d="M432.835,427.015c-2.219,0-4.437,0-6.656,0c0.063-0.892,0.014-2.53,0.207-2.56
		c2.112-0.318,4.262-0.386,6.402-0.521C432.804,424.961,432.819,425.988,432.835,427.015z"/>
	<path fill-rule="evenodd" clip-rule="evenodd" d="M593.672,386.188c2.547-3.464,4.826-6.563,7.117-9.678
		C603.414,378.56,601.08,382.442,593.672,386.188z"/>
	<path fill-rule="evenodd" clip-rule="evenodd" d="M757.056,589.612c1.054,0.711,1.304,0.837,1.291,0.877
		c-0.744,2.298-1.509,4.588-2.272,6.879c-0.706-0.244-1.412-0.488-2.119-0.732C754.97,594.339,755.983,592.042,757.056,589.612z"/>
	<path fill-rule="evenodd" clip-rule="evenodd" d="M768.914,648.263c-1.051,0.392-2.316,1.349-3.104,1.049
		c-1.3-0.495-2.29-1.803-3.411-2.768c0.685-0.724,1.492-2.13,2.029-2.033c1.235,0.223,2.34,1.176,3.497,1.832
		C768.255,646.982,768.585,647.623,768.914,648.263z"/>
	<path fill-rule="evenodd" clip-rule="evenodd" d="M238.821,474.794c-0.71-3.231-1.172-5.332-1.671-7.601
		C242.009,467.54,242.406,469.047,238.821,474.794z"/>
	<path fill-rule="evenodd" clip-rule="evenodd" d="M629.295,450.885c0.112,1.973,0.225,3.944,0.338,5.917
		c-0.346,0.212-0.689,0.425-1.033,0.637c-0.969-1.021-2.563-1.95-2.732-3.091c-0.18-1.205,0.996-2.613,1.58-3.933
		C628.063,450.571,628.68,450.729,629.295,450.885z"/>
	<path fill-rule="evenodd" clip-rule="evenodd" d="M586.799,403.934c1.662-0.705,3.289-1.563,5.021-1.976
		c0.31-0.074,1.058,1.688,1.604,2.603c-1.839,0.562-3.679,1.123-5.517,1.686C587.537,405.475,587.168,404.704,586.799,403.934z"/>
	<path fill-rule="evenodd" clip-rule="evenodd" d="M396.708,467.765c1.296,1.757,2.366,2.631,2.552,3.665
		c0.117,0.648-1.244,2.265-1.676,2.174c-1.092-0.228-2.593-1-2.869-1.886C394.471,470.937,395.659,469.708,396.708,467.765z"/>
	<path fill-rule="evenodd" clip-rule="evenodd" d="M448.894,409.933c-1.278,1.752-2.557,3.504-3.836,5.256
		c-0.494-0.364-1.454-0.983-1.414-1.057c1.034-1.894,2.172-3.729,3.292-5.575C447.588,409.015,448.241,409.474,448.894,409.933z"/>
	<path fill-rule="evenodd" clip-rule="evenodd" d="M421.267,349.924c-1.353,0.85-2.412,1.833-2.704,1.643
		c-1.193-0.779-2.151-1.917-3.195-2.923c0.611-0.625,1.573-1.883,1.778-1.77C418.441,347.589,419.569,348.607,421.267,349.924z"/>
	<path fill-rule="evenodd" clip-rule="evenodd" d="M452.334,726.676c-1.761-1.54-3.521-3.08-5.282-4.62
		c0.509-0.581,1.017-1.161,1.526-1.741c1.795,1.526,3.59,3.053,5.386,4.579C453.421,725.487,452.878,726.082,452.334,726.676z"/>
	<path fill-rule="evenodd" clip-rule="evenodd" d="M275.919,580.646c-1.552-2.017-2.583-3.137-3.273-4.438
		c-0.139-0.261,1.372-1.83,1.524-1.743c1.169,0.664,2.429,1.429,3.145,2.505C277.621,577.43,276.698,578.707,275.919,580.646z"/>
	<path fill-rule="evenodd" clip-rule="evenodd" d="M261.161,491.139c0.878-1.45,1.756-2.901,2.634-4.352
		c0.822,0.619,1.644,1.238,2.466,1.857c-1.014,1.329-2.028,2.658-3.042,3.988C262.533,492.135,261.847,491.637,261.161,491.139z"/>
	<path fill-rule="evenodd" clip-rule="evenodd" d="M500.876,283.396c-2.139,0.797-3.254,1.641-3.971,1.382
		c-1.152-0.417-2.041-1.563-3.041-2.4c0.877-0.58,1.857-1.742,2.609-1.609C497.683,280.981,498.74,282.05,500.876,283.396z"/>
	<path fill-rule="evenodd" clip-rule="evenodd" d="M779.634,627.152c-0.522-1.645-1.046-3.289-1.568-4.933
		c0.89-0.171,2.526-0.576,2.558-0.479c0.496,1.588,0.788,3.238,1.127,4.875C781.045,626.795,780.339,626.974,779.634,627.152z"/>
	<path fill-rule="evenodd" clip-rule="evenodd" d="M441.051,426.427c0.538-1.589,1.075-3.177,1.613-4.766
		c0.817,0.381,2.374,0.902,2.332,1.121c-0.286,1.513-0.905,2.963-1.417,4.434C442.736,426.953,441.894,426.689,441.051,426.427z"/>
	<path fill-rule="evenodd" clip-rule="evenodd" d="M726.765,518.514c-1.46,1.178-2.92,2.354-4.379,3.532
		c-0.484-0.708-1.497-1.912-1.371-2.046c1.229-1.308,2.647-2.437,4.012-3.616C725.605,517.094,726.185,517.804,726.765,518.514z"/>
	<path fill-rule="evenodd" clip-rule="evenodd" d="M404.256,399.284c1.871,2.251,3.288,3.954,4.86,5.846
		C403.903,405.096,402.712,403.839,404.256,399.284z"/>
	<path fill-rule="evenodd" clip-rule="evenodd" d="M666.138,433.89c-1.445,0.794-2.595,1.747-2.894,1.53
		c-1.084-0.787-1.882-1.968-2.788-2.999c0.665-0.56,1.668-1.724,1.938-1.573C663.59,431.512,664.574,432.555,666.138,433.89z"/>
</g>
</svg>
